<svg xmlns="http://www.w3.org/2000/svg" width="57" height="32"><path fill="#8e8f99" d="M20.309 27.158c.009 0 .018.002.026.005s.015.008.021.013l.122.115a.989.989 0 0 1-.343.217 1.35 1.35 0 0 1-.486.078 1.303 1.303 0 0 1-.457-.073 1.002 1.002 0 0 1-.344-.206.907.907 0 0 1-.222-.318 1.063 1.063 0 0 1 .006-.816.95.95 0 0 1 .236-.318c.104-.09.228-.16.366-.207.15-.05.31-.074.471-.073.149-.003.298.019.437.066a1.2 1.2 0 0 1 .327.183l-.102.122a.092.092 0 0 1-.026.022.073.073 0 0 1-.041.009.094.094 0 0 1-.044-.013l-.055-.033-.076-.042a.9.9 0 0 0-.241-.073 1.095 1.095 0 0 0-.181-.013.986.986 0 0 0-.338.055.71.71 0 0 0-.437.399.804.804 0 0 0-.062.323.825.825 0 0 0 .062.328.694.694 0 0 0 .422.394.92.92 0 0 0 .314.052 1.45 1.45 0 0 0 .186-.01.737.737 0 0 0 .402-.168.098.098 0 0 1 .058-.021zM23.827 26.582a.985.985 0 0 1-.082.405c-.05.117-.128.224-.229.314s-.224.16-.36.206a1.51 1.51 0 0 1-.926 0 1.06 1.06 0 0 1-.358-.207.918.918 0 0 1-.232-.318 1.038 1.038 0 0 1 0-.811.954.954 0 0 1 .232-.319 1.08 1.08 0 0 1 .358-.199 1.48 1.48 0 0 1 .926 0c.135.047.258.117.359.207a.934.934 0 0 1 .312.721zm-.32 0a.849.849 0 0 0-.058-.325.664.664 0 0 0-.163-.243.732.732 0 0 0-.257-.154 1.09 1.09 0 0 0-.673 0 .717.717 0 0 0-.257.154.654.654 0 0 0-.164.243.935.935 0 0 0 0 .651c.034.09.09.173.164.243a.736.736 0 0 0 .257.152c.217.069.456.069.673 0a.727.727 0 0 0 .257-.152.694.694 0 0 0 .163-.243.849.849 0 0 0 .058-.325zM26.227 26.923l.032.073a2.526 2.526 0 0 1 .075-.145l.778-1.209c.015-.021.029-.034.044-.038a.196.196 0 0 1 .064-.006h.23v1.966h-.273v-1.507a.386.386 0 0 1 0-.068l-.783 1.226c-.01.018-.026.034-.046.045s-.043.017-.067.016h-.044c-.024 0-.047-.005-.067-.016s-.036-.026-.046-.045l-.806-1.233V27.56h-.263v-1.962h.23a.228.228 0 0 1 .064.006.085.085 0 0 1 .043.038l.795 1.21a.407.407 0 0 1 .04.07zM29.156 26.826v.736h-.305v-1.963h.679a1.46 1.46 0 0 1 .379.043c.099.024.19.066.268.122.068.053.12.119.152.193.036.08.054.165.052.251a.55.55 0 0 1-.22.447.787.787 0 0 1-.27.13 1.334 1.334 0 0 1-.367.046l-.369-.005zm0-.211h.369a.85.85 0 0 0 .236-.03.517.517 0 0 0 .171-.085.382.382 0 0 0 .141-.295c.004-.055-.007-.109-.03-.16s-.06-.097-.107-.134a.658.658 0 0 0-.41-.105h-.369v.809zM33.249 27.565h-.241a.118.118 0 0 1-.067-.018.126.126 0 0 1-.04-.046l-.207-.475h-1.04l-.215.475a.107.107 0 0 1-.038.044.124.124 0 0 1-.069.02h-.241l.914-1.966h.317l.926 1.966zm-1.507-.73h.859l-.362-.8a1.25 1.25 0 0 1-.069-.185l-.035.103c-.011.031-.023.06-.033.083l-.359.799zM34.565 25.608a.148.148 0 0 1 .046.035l1.333 1.482V25.599h.273v1.966h-.152a.13.13 0 0 1-.062-.012.178.178 0 0 1-.049-.036l-1.331-1.481a.771.771 0 0 1 0 .068v1.461h-.273v-1.966h.161c.019 0 .038.003.055.009zM38.461 26.783v.781h-.305v-.781l-.842-1.184h.273a.117.117 0 0 1 .066.017.17.17 0 0 1 .041.044l.527.764c.021.033.04.062.055.091s.027.056.038.083l.04-.085a.677.677 0 0 1 .052-.09l.519-.769a.225.225 0 0 1 .04-.042.108.108 0 0 1 .066-.02h.276l-.844 1.189zM26.076 22.299c.132.014.266.026.402.036 2.055-.785 3.793-2.071 4.998-3.696s1.822-3.517 1.775-5.44l-2.265-1.935c.46 2.047.245 4.164-.622 6.113s-2.352 3.653-4.288 4.922z"/><path fill="#8e8f99" d="m25.268 22.209.061.01c2.069-1.264 3.646-3.03 4.528-5.069s1.028-4.256.418-6.366l-3.226-2.756c1.305 2.265 1.83 4.8 1.514 7.311s-1.458 4.892-3.296 6.87zM36.207 15.472c-.548 2.113-1.879 4.018-3.795 5.434-.56.416-1.163.786-1.803 1.106 1.56-.392 2.995-1.085 4.192-2.025s2.126-2.103 2.715-3.398l-1.308-1.116z"/><path fill="#8e8f99" d="m35.694 15.161-1.863-1.591c-.036 1.814-.639 3.587-1.748 5.135s-2.683 2.813-4.558 3.665h.009c.418 0 .835-.021 1.25-.064 1.753-.611 3.301-1.583 4.506-2.83s2.031-2.729 2.403-4.315zM25.537 6.867l-2.222-1.901c-1.986.656-3.695 1.809-4.902 3.308s-1.856 3.275-1.862 5.094c.007 2.01.799 3.961 2.251 5.544s3.479 2.706 5.762 3.194c2.038-2.121 3.231-4.743 3.406-7.483s-.677-5.457-2.433-7.755zM40.828 14.868c-.008-2.385-1.121-4.671-3.095-6.358s-4.649-2.637-7.441-2.644a12.003 12.003 0 0 0-3.772.6L40.125 18.09a7.781 7.781 0 0 0 .704-3.222z"/></svg>